<?xml version="1.0" standalone="no"?>
<!DOCTYPE svg PUBLIC "-//W3C//DTD SVG 20010904//EN"
 "http://www.w3.org/TR/2001/REC-SVG-20010904/DTD/svg10.dtd">
<svg version="1.0" xmlns="http://www.w3.org/2000/svg"
 width="721.000000pt" height="721.000000pt" viewBox="0 0 721.000000 721.000000"
 preserveAspectRatio="xMidYMid meet">
<metadata>
Created by potrace 1.11, written by Peter Selinger 2001-2013
</metadata>
<g transform="translate(0.000000,721.000000) scale(0.100000,-0.100000)"
fill="#000000" stroke="none">
<path d="M1838 5366 l-1757 -1762 1762 -1762 1762 -1761 1763 1759 c969 968
1762 1763 1762 1767 0 12 -3514 3523 -3525 3522 -6 0 -801 -794 -1767 -1763z
m3404 -123 c890 -890 1618 -1622 1618 -1626 0 -13 -3232 -3257 -3245 -3257
-13 0 -3255 3241 -3255 3255 -1 13 3241 3244 3255 3244 5 1 738 -727 1627
-1616z"/>
<path d="M1997 5228 l-1619 -1611 1619 -1619 1618 -1618 213 213 c117 116 843
845 1612 1618 l1399 1405 -1612 1612 -1612 1611 -1618 -1611z m1109 236 c27
-9 82 -39 123 -65 l74 -49 313 0 c172 0 314 4 316 8 4 9 82 62 118 79 75 36
106 43 199 43 138 -1 218 -31 307 -117 79 -75 125 -162 140 -263 7 -50 25 -70
63 -70 70 0 173 -59 260 -148 64 -66 76 -88 136 -242 10 -25 28 -69 41 -98 13
-29 24 -58 24 -65 0 -7 4 -17 8 -22 5 -6 17 -32 27 -60 9 -27 23 -63 30 -80 7
-16 20 -50 30 -75 18 -46 23 -58 48 -120 14 -34 41 -104 57 -145 22 -58 43
-112 51 -130 33 -75 149 -391 149 -404 0 -9 4 -21 9 -26 15 -17 31 -126 31
-212 0 -208 -44 -348 -161 -509 -108 -150 -257 -257 -439 -315 -67 -22 -93
-24 -250 -24 -166 0 -179 2 -255 29 -179 63 -319 161 -413 291 -20 28 -40 52
-44 53 -5 2 -8 10 -8 17 0 8 -6 20 -12 27 -19 20 -54 96 -81 178 -14 41 -35
202 -40 309 l-2 43 -27 -25 c-111 -103 -266 -153 -394 -127 -76 15 -170 61
-225 110 -24 21 -47 37 -50 34 -3 -2 -8 -63 -12 -136 -6 -154 -21 -216 -83
-343 -80 -163 -247 -325 -410 -396 -137 -59 -159 -63 -344 -64 -180 0 -227 7
-335 52 -147 62 -334 224 -401 348 -51 96 -74 147 -74 167 0 8 -4 18 -9 24
-40 44 -42 398 -2 489 5 11 16 43 26 70 9 28 21 59 26 70 4 11 29 74 54 140
25 66 49 129 54 140 5 11 16 40 26 65 10 25 21 54 26 65 5 11 22 56 39 100 17
44 34 89 39 100 5 11 17 40 26 65 18 45 39 98 55 135 4 11 22 56 39 100 18 44
36 88 41 97 6 10 10 22 10 28 0 5 11 33 24 62 14 29 34 74 45 101 49 114 238
257 342 257 36 0 55 26 64 85 11 81 56 166 123 233 62 63 95 84 172 113 61 23
219 25 286 3z"/>
<path d="M3525 3871 c-41 -10 -108 -54 -134 -88 -11 -15 -24 -32 -29 -38 -19
-25 -42 -105 -42 -149 0 -76 28 -144 85 -202 62 -63 113 -84 208 -84 86 0 139
21 195 77 38 38 48 54 77 127 54 136 -56 328 -205 356 -59 11 -110 11 -155 1z"/>
<path d="M2291 3739 c-196 -35 -386 -224 -432 -428 -55 -247 70 -505 300 -620
164 -82 386 -70 541 29 98 63 188 180 235 305 22 60 31 165 19 242 -6 43 -15
87 -19 98 -67 179 -194 302 -370 360 -61 20 -201 27 -274 14z m-195 -439 c40
-165 148 -299 298 -371 58 -28 109 -41 210 -54 40 -5 46 -9 35 -19 -32 -29
-127 -48 -222 -44 -116 5 -184 35 -268 119 -91 91 -119 159 -119 291 0 81 5
105 34 167 l11 24 3 -24 c2 -13 10 -53 18 -89z"/>
<path d="M4700 3739 c-25 -5 -54 -13 -65 -18 -191 -85 -297 -194 -348 -356
-42 -134 -45 -164 -23 -265 28 -133 70 -212 158 -300 218 -217 563 -221 778
-8 47 47 120 146 120 164 0 3 6 20 14 37 45 102 48 300 5 379 -5 10 -9 23 -9
29 0 17 -68 126 -104 167 -122 139 -334 208 -526 171z m-195 -412 c10 -84 38
-152 96 -232 90 -123 206 -189 384 -218 l79 -13 -49 -24 c-44 -22 -63 -25
-165 -25 -108 0 -119 2 -175 30 -60 30 -147 107 -178 157 -23 37 -67 174 -67
208 0 34 27 146 42 178 15 30 23 14 33 -61z"/>
</g>
</svg>
